<?xml version="1.0" encoding="utf-8"?>
<!-- Generator: Adobe Illustrator 22.0.1, SVG Export Plug-In . SVG Version: 6.00 Build 0)  -->
<svg version="1.1" id="Layer_1" xmlns="http://www.w3.org/2000/svg" xmlns:xlink="http://www.w3.org/1999/xlink" x="0px" y="0px"
	 viewBox="0 0 862.8 140.7" style="enable-background:new 0 0 862.8 140.7;" xml:space="preserve">
<style type="text/css">
	.st0{fill:#FFFFFF;}
	.st1{fill:#D06E1A;}
	.st2{fill:#F68921;}
</style>
<g>
	<g>
		<path class="st0" d="M231.6,70.3c0-14.7-10.1-25.1-25.1-25.1h-14.1v50.1h14.1c15,0,25.1-10.1,25.1-24.8V70.3z M206.5,111.9h-32.4
			V28.8h32.4c26.1,0,44.2,17.9,44.2,41.3v0.2C250.7,93.7,232.6,111.9,206.5,111.9"/>
	</g>
	<path class="st0" d="M287.6,50.1l-11,27h22.1L287.6,50.1z M312.8,111.9l-7.6-18.7H270l-7.6,18.7h-18.7l35.6-83.8h16.9l35.6,83.8
		H312.8z"/>
	<polygon class="st0" points="359.6,45 359.6,111.9 341.3,111.9 341.3,45 316,45 316,28.8 384.9,28.8 384.9,45 	"/>
	<g>
		<path class="st0" d="M453.8,70.3c0-14.3-10.5-26.1-25.2-26.1c-14.7,0-24.9,11.6-24.9,25.9v0.2c0,14.3,10.5,26.1,25.2,26.1
			c14.7,0,24.9-11.6,24.9-25.9V70.3z M428.6,113.3c-25.7,0-44.1-19.1-44.1-42.8v-0.2c0-23.6,18.7-43,44.3-43
			c25.7,0,44.1,19.1,44.1,42.8v0.2C472.9,94,454.3,113.3,428.6,113.3"/>
	</g>
	<polygon class="st0" points="544,111.9 544,57.6 520.6,93.2 520.2,93.2 497,58 497,111.9 479.1,111.9 479.1,28.8 498.8,28.8
		520.6,63.9 542.5,28.8 562.2,28.8 562.2,111.9 	"/>
	<polygon class="st0" points="570,111.9 570,28.8 632.8,28.8 632.8,45 588.2,45 588.2,61.9 627.4,61.9 627.4,78.2 588.2,78.2
		588.2,95.6 633.4,95.6 633.4,111.9 	"/>
	<polygon class="st0" points="683.2,45 683.2,111.9 664.9,111.9 664.9,45 639.6,45 639.6,28.8 708.5,28.8 708.5,45 	"/>
	<g>
		<path class="st0" d="M766.2,57.2c0-7.8-5.5-11.9-14.4-11.9h-18.2v23.9h18.5c8.9,0,14-4.8,14-11.8V57.2z M765.9,111.9L748,85.3
			h-14.4v26.6h-18.3V28.8h38c19.6,0,31.4,10.3,31.4,27.4v0.2c0,13.4-7.2,21.9-17.8,25.8l20.3,29.7H765.9z"/>
	</g>
	<polygon class="st0" points="842,28.8 821.8,62.1 802,28.8 780.6,28.8 812.5,79.1 812.5,111.9 830.8,111.9 830.8,78.8 862.8,28.8
		"/>
</g>
<g>
	<polygon class="st1" points="0,76.4 0,100.9 66.1,61.1 66.1,36.6 	"/>
	<polygon class="st2" points="66.1,61.1 132.3,100.9 132.3,76.4 66.1,36.6 	"/>
	<polygon class="st1" points="66.1,116.2 66.1,140.7 132.3,100.9 132.3,76.4 	"/>
	<polygon class="st2" points="0,100.9 66.1,140.7 66.1,116.2 0,76.4 	"/>
	<polygon class="st1" points="66.1,0 0,39.8 0,64.3 66.1,24.5 	"/>
	<polygon class="st2" points="66.1,24.5 132.3,64.3 132.3,39.8 66.1,0 	"/>
	<polygon class="st1" points="66.1,79.6 66.1,104.1 132.3,64.3 132.3,39.8 	"/>
	<polygon class="st2" points="0,64.3 66.1,104.1 66.1,79.6 0,39.8 	"/>
</g>
</svg>
